<svg xmlns="http://www.w3.org/2000/svg" width="640" height="400" viewBox="0 0 640 400" role="img" aria-label="Chat interface preview">
  <rect width="640" height="400" fill="#0d0d0d"/>
  <rect width="180" height="400" fill="#171717"/>
  <rect x="180" width="1" height="400" fill="#2f2f2f"/>
  <rect x="12" y="16" width="24" height="24" rx="6" fill="#10a37f"/>
  <text x="18" y="32" fill="#fff" font-family="system-ui,sans-serif" font-size="10" font-weight="700">AI</text>
  <text x="44" y="32" fill="#f4f4f5" font-family="system-ui,sans-serif" font-size="12" font-weight="600">AI UX Lab</text>
  <rect x="12" y="52" width="156" height="28" rx="8" fill="#10a37f" fill-opacity="0.15" stroke="#10a37f"/>
  <text x="24" y="70" fill="#fafafa" font-family="system-ui,sans-serif" font-size="10">Streaming demo</text>
  <rect x="200" y="14" width="420" height="32" fill="none" stroke="#2f2f2f"/>
  <text x="212" y="34" fill="#71717a" font-family="system-ui,sans-serif" font-size="10">Gemini | SSE | Markdown</text>
  <circle cx="224" cy="120" r="14" fill="#10a37f"/>
  <text x="218" y="124" fill="#fff" font-family="system-ui,sans-serif" font-size="9" font-weight="700">AI</text>
  <rect x="248" y="108" width="300" height="10" rx="4" fill="#27272a"/>
  <rect x="248" y="126" width="260" height="8" rx="4" fill="#27272a"/>
  <rect x="248" y="148" width="320" height="44" rx="6" fill="#18181b" stroke="#2f2f2f"/>
  <text x="260" y="174" fill="#34d399" font-family="ui-monospace,monospace" font-size="11">streamChat()</text>
  <rect x="200" y="340" width="420" height="36" rx="18" fill="#171717" stroke="#2f2f2f"/>
  <text x="220" y="362" fill="#71717a" font-family="system-ui,sans-serif" font-size="11">Message...</text>
  <circle cx="600" cy="358" r="14" fill="#10a37f"/>
</svg>
