<svg xmlns="http://www.w3.org/2000/svg" width="640" height="400" viewBox="0 0 640 400" fill="none">
  <rect width="640" height="400" fill="#0d0d0d"/>
  <rect x="0" y="0" width="180" height="400" fill="#171717"/>
  <rect x="180" y="0" width="1" height="400" fill="#2f2f2f"/>
  <rect x="12" y="16" width="60" height="24" rx="6" fill="#10a37f"/>
  <text x="24" y="32" fill="white" font-family="system-ui" font-size="11" font-weight="600">AI</text>
  <text x="80" y="32" fill="#f4f4f5" font-family="system-ui" font-size="12" font-weight="600">AI UX Lab</text>
  <rect x="12" y="56" width="156" height="28" rx="8" fill="#212121"/>
  <text x="24" y="74" fill="#a1a1aa" font-family="system-ui" font-size="10">Code review&</text>
  <rect x="12" y="92" width="156" height="28" rx="8" fill="#10a37f" fill-opacity="0.2" stroke="#10a37f"/>
  <text x="24" y="110" fill="#f4f4f5" font-family="system-ui" font-size="10">Streaming demo</text>
  <rect x="200" y="16" width="200" height="16" fill="#52525b" rx="4"/>
  <rect x="500" y="12" width="80" height="24" rx="12" fill="#212121" stroke="#2f2f2f"/>
  <text x="512" y="28" fill="#71717a" font-family="system-ui" font-size="9">OpenAI</text>
  <circle cx="220" cy="120" r="16" fill="#10a37f"/>
  <text x="213" y="125" fill="white" font-size="9" font-family="system-ui">AI</text>
  <rect x="248" y="100" width="360" height="12" rx="4" fill="#27272a"/>
  <rect x="248" y="120" width="320" height="8" rx="4" fill="#27272a"/>
  <rect x="248" y="136" width="280" height="8" rx="4" fill="#27272a"/>
  <rect x="248" y="160" width="340" height="48" rx="6" fill="#18181b" stroke="#2f2f2f"/>
  <text x="260" y="182" fill="#34d399" font-family="monospace" font-size="9">export async function stream()</text>
  <circle cx="580" cy="320" r="16" fill="#3f3f46"/>
  <text x="573" y="325" fill="#a1a1aa" font-size="9">T˙</text>
  <rect x="200" y="300" width="360" height="36" rx="4" fill="#27272a"/>
  <rect x="200" y="352" width="420" height="36" rx="18" fill="#171717" stroke="#2f2f2f"/>
  <text x="220" y="374" fill="#71717a" font-family="system-ui" font-size="11">Mensaje&</text>
  <circle cx="596" cy="370" r="14" fill="#10a37f"/>
</svg>
