<svg xmlns="http://www.w3.org/2000/svg" width="640" height="400" viewBox="0 0 640 400" fill="none">
  <rect width="640" height="400" fill="#0d0d0d"/>
  <pattern id="grid" width="32" height="32" patternUnits="userSpaceOnUse">
    <path d="M32 0H0V32" fill="none" stroke="#1f1f1f" stroke-width="0.5"/>
  </pattern>
  <rect width="640" height="400" fill="url(#grid)"/>
  <ellipse cx="320" cy="80" rx="200" ry="80" fill="#10a37f" fill-opacity="0.12"/>
  <text x="320" y="120" text-anchor="middle" fill="#10a37f" font-family="system-ui" font-size="11" font-weight="500">Portfolio · AI-native UX</text>
  <text x="320" y="165" text-anchor="middle" fill="#fafafa" font-family="system-ui" font-size="22" font-weight="700">Interfaces de chat que</text>
  <text x="320" y="195" text-anchor="middle" fill="#10a37f" font-family="system-ui" font-size="22" font-weight="700">se sienten pro</text>
  <text x="320" y="230" text-anchor="middle" fill="#71717a" font-family="system-ui" font-size="11">Next.js 15 · Streaming · Tool calling · Memory</text>
  <rect x="220" y="260" width="120" height="36" rx="10" fill="#10a37f"/>
  <text x="280" y="283" text-anchor="middle" fill="white" font-size="11" font-weight="600">Probar demo</text>
  <rect x="350" y="260" width="100" height="36" rx="10" fill="none" stroke="#2f2f2f"/>
  <text x="400" y="283" text-anchor="middle" fill="#a1a1aa" font-size="11">GitHub</text>
  <rect x="80" y="320" width="140" height="60" rx="12" fill="#171717" stroke="#2f2f2f"/>
  <text x="100" y="345" fill="#fafafa" font-size="10" font-weight="600">Streaming SSE</text>
  <text x="100" y="362" fill="#71717a" font-size="8">Tokens en tiempo real</text>
  <rect x="250" y="320" width="140" height="60" rx="12" fill="#171717" stroke="#2f2f2f"/>
  <text x="270" y="345" fill="#fafafa" font-size="10" font-weight="600">Multi-provider</text>
  <text x="270" y="362" fill="#71717a" font-size="8">OpenAI · Anthropic</text>
  <rect x="420" y="320" width="140" height="60" rx="12" fill="#171717" stroke="#2f2f2f"/>
  <text x="440" y="345" fill="#fafafa" font-size="10" font-weight="600">Tool calling</text>
  <text x="440" y="362" fill="#71717a" font-size="8">Timeline visual</text>
</svg>
