<svg xmlns="http://www.w3.org/2000/svg" width="640" height="400" viewBox="0 0 640 400" fill="none">
  <rect width="640" height="400" fill="#0d0d0d"/>
  <rect x="360" y="0" width="280" height="400" fill="#171717"/>
  <rect x="360" y="0" width="1" height="400" fill="#2f2f2f"/>
  <text x="380" y="36" fill="#71717a" font-family="system-ui" font-size="9" font-weight="600">TOOL CALLING</text>
  <line x1="392" y1="80" x2="392" y2="200" stroke="#2f2f2f" stroke-width="2"/>
  <circle cx="392" cy="72" r="6" fill="#22c55e"/>
  <rect x="408" y="52" width="210" height="72" rx="8" fill="#0d0d0d" stroke="#2f2f2f"/>
  <text x="420" y="72" fill="#c4b5fd" font-family="monospace" font-size="11">get_weather</text>
  <text x="420" y="88" fill="#71717a" font-family="monospace" font-size="8">{ "city": "Buenos Aires" }</text>
  <text x="420" y="112" fill="#34d399" font-size="9">’ 22°C, parcialmente nublado</text>
  <circle cx="392" cy="152" r="6" fill="#22c55e"/>
  <rect x="408" y="132" width="210" height="72" rx="8" fill="#0d0d0d" stroke="#2f2f2f"/>
  <text x="420" y="152" fill="#c4b5fd" font-family="monospace" font-size="11">search_repo</text>
  <text x="420" y="168" fill="#71717a" font-family="monospace" font-size="8">{ "query": "stack" }</text>
  <text x="420" y="192" fill="#34d399" font-size="9">’ Next.js 15, TypeScript</text>
  <text x="380" y="240" fill="#71717a" font-family="system-ui" font-size="9" font-weight="600">MEMORY</text>
  <rect x="380" y="252" width="240" height="40" rx="6" fill="#0d0d0d" stroke="#2f2f2f"/>
  <text x="392" y="270" fill="#34d399" font-family="monospace" font-size="9">user.name</text>
  <text x="392" y="284" fill="#a1a1aa" font-size="9">Carlos</text>
  <rect x="380" y="300" width="240" height="40" rx="6" fill="#0d0d0d" stroke="#2f2f2f"/>
  <text x="392" y="318" fill="#34d399" font-family="monospace" font-size="9">prefs.language</text>
  <text x="392" y="332" fill="#a1a1aa" font-size="9">es-AR</text>
  <rect x="0" y="0" width="360" height="400" fill="#0d0d0d" opacity="0.5"/>
  <text x="120" y="200" fill="#52525b" font-family="system-ui" font-size="14">Chat + Panels</text>
</svg>
